<?xml version="1.0" encoding="UTF-8"?>
<svg id="Layer_1" xmlns="http://www.w3.org/2000/svg" xmlns:xlink="http://www.w3.org/1999/xlink" viewBox="0 0 271 271">
  <defs>
    <style>
      .cls-1 {
        fill: url(#linear-gradient-2);
      }

      .cls-2 {
        fill: #231f20;
      }

      .cls-3 {
        fill: #ccc;
      }

      .cls-4 {
        fill: url(#linear-gradient);
      }
    </style>
    <linearGradient id="linear-gradient" x1="0" y1="135.5" x2="271" y2="135.5" gradientUnits="userSpaceOnUse">
      <stop offset=".02" stop-color="#595a5a"/>
      <stop offset=".51" stop-color="#dfdfde"/>
      <stop offset=".73" stop-color="#a0a1a0"/>
      <stop offset="1" stop-color="#595a5a"/>
    </linearGradient>
    <linearGradient id="linear-gradient-2" x1="0" y1="135.5" x2="271" y2="135.5" gradientUnits="userSpaceOnUse">
      <stop offset="0" stop-color="#dfdfde"/>
      <stop offset="0" stop-color="#dededd"/>
      <stop offset=".07" stop-color="#bebebe"/>
      <stop offset=".14" stop-color="#a5a5a4"/>
      <stop offset=".21" stop-color="#919190"/>
      <stop offset=".3" stop-color="#828282"/>
      <stop offset=".41" stop-color="#7a7a7a"/>
      <stop offset=".59" stop-color="#787878"/>
      <stop offset=".7" stop-color="#7a7a7a"/>
      <stop offset=".78" stop-color="#838383"/>
      <stop offset=".84" stop-color="#929292"/>
      <stop offset=".9" stop-color="#a7a7a7"/>
      <stop offset=".96" stop-color="#c3c3c2"/>
      <stop offset="1" stop-color="#dfdfde"/>
    </linearGradient>
  </defs>
  <g>
    <rect class="cls-4" x="0" y="0" width="271" height="271" rx="135.5" ry="135.5"/>
    <path class="cls-1" d="M135.5,6.47c34.46,0,66.87,13.42,91.24,37.79,24.37,24.37,37.79,56.77,37.79,91.24s-13.42,66.87-37.79,91.24c-24.37,24.37-56.77,37.79-91.24,37.79s-66.87-13.42-91.24-37.79c-24.37-24.37-37.79-56.77-37.79-91.24s13.42-66.87,37.79-91.24S101.04,6.47,135.5,6.47M135.5,0h0C60.67,0,0,60.67,0,135.5h0c0,74.83,60.67,135.5,135.5,135.5h0c74.83,0,135.5-60.67,135.5-135.5h0C271,60.67,210.33,0,135.5,0h0Z"/>
  </g>
  <circle class="cls-2" cx="135.5" cy="135.5" r="111.5"/>
  <g>
    <path class="cls-3" d="M68.04,67.4c-.15.15-.29.3-.44.45.3.63.53,1.3.91,1.87,2.63,3.97,5.1,8.07,7.98,11.86,15.87,20.88,31.81,41.7,47.82,62.47,3.53,4.58,8.43,6.41,14.14,5.15,5.77-1.27,9.45-5.01,10.68-10.77,1.21-5.7-.74-10.5-5.27-14.11-8.54-6.79-17.08-13.58-25.77-20.17-15.11-11.44-30.32-22.74-45.52-34.05-1.4-1.04-3.01-1.81-4.52-2.71Z"/>
    <path class="cls-3" d="M227.08,140.6c-.35,2.7-.64,5.42-1.04,8.11-3.25,21.88-13.15,40.25-29.53,55.05-13.29,12.01-28.87,19.7-46.6,22.16-34.32,4.76-63-6.16-85.39-32.64-11.86-14.02-18.34-30.54-20.14-48.8-1.53-15.53.84-30.52,6.99-44.89,1.54-3.58,5.65-5.55,9.46-4.53,5.78,1.55,8.44,6.9,6.47,12.59-1.48,4.26-3,8.56-3.95,12.95-2.77,12.84-2.1,25.57,2.09,38.07,3.59,10.74,9.33,20.19,17.22,28.3,7.28,7.48,15.8,13.17,25.5,17.08,9.71,3.92,19.78,5.65,30.22,5.25,12.01-.46,23.23-3.75,33.64-9.71,11.87-6.79,21.16-16.18,27.84-28.09,5.07-9.04,8.18-18.73,9.07-29.1,1.5-17.44-2.58-33.46-12.35-47.98-5.9-8.78-13.45-15.9-22.43-21.48-1.82-1.13-3.71-2.17-5.45-3.41-4.64-3.31-5.76-8.36-2.95-12.81,2.34-3.7,6.61-4.92,10.63-2.9,13.28,6.69,24.37,16.01,33.13,28.02,9.01,12.36,14.56,26.16,16.66,41.31.41,2.94.63,5.9.94,8.85v8.59Z"/>
    <path class="cls-3" d="M136.91,44c2.9.71,5.74,1.57,7.96,3.72,4.31,4.17,5.59,9.13,3.83,14.85-1.52,4.95-6.33,8.74-11.36,9.36-7.98,1-14.58-4.51-15.68-11.61-1.27-8.22,4.45-15.06,11.74-16.06.22-.03.43-.18.65-.28.95,0,1.91,0,2.86,0Z"/>
    <path class="cls-3" d="M68.04,67.4c1.51.9,3.12,1.66,4.52,2.71,15.2,11.32,30.42,22.61,45.52,34.05,8.69,6.58,17.23,13.38,25.77,20.17,4.53,3.6,6.48,8.41,5.27,14.11-1.23,5.76-4.9,9.49-10.68,10.77-5.71,1.26-10.61-.57-14.14-5.15-16.01-20.77-31.95-41.6-47.82-62.47-2.88-3.79-5.35-7.88-7.98-11.86-.38-.57-.61-1.24-.91-1.87.15-.15.29-.3.44-.45Z"/>
  </g>
</svg>