<?xml version="1.0" encoding="UTF-8"?>
<svg id="Layer_1" xmlns="http://www.w3.org/2000/svg" xmlns:xlink="http://www.w3.org/1999/xlink" viewBox="0 0 242.81 283.54">
  <defs>
    <style>
      .cls-1 {
        fill: url(#linear-gradient-2);
      }

      .cls-2 {
        fill: #231f20;
      }

      .cls-3 {
        fill: #ccc;
      }

      .cls-4 {
        fill: url(#linear-gradient-3);
      }

      .cls-5 {
        fill: url(#linear-gradient);
      }
    </style>
    <linearGradient id="linear-gradient" x1="0" y1="253.41" x2="242.81" y2="253.41" gradientUnits="userSpaceOnUse">
      <stop offset="0" stop-color="#e0e0de"/>
      <stop offset="0" stop-color="#dededd"/>
      <stop offset=".07" stop-color="#bfbebe"/>
      <stop offset=".14" stop-color="#a5a5a4"/>
      <stop offset=".21" stop-color="#929190"/>
      <stop offset=".3" stop-color="#838383"/>
      <stop offset=".41" stop-color="#7c7b7b"/>
      <stop offset=".59" stop-color="#797979"/>
      <stop offset=".7" stop-color="#7c7b7b"/>
      <stop offset=".78" stop-color="#838384"/>
      <stop offset=".84" stop-color="#939292"/>
      <stop offset=".9" stop-color="#a8a7a7"/>
      <stop offset=".96" stop-color="#c3c3c2"/>
      <stop offset="1" stop-color="#e0e0de"/>
    </linearGradient>
    <linearGradient id="linear-gradient-2" x1="15.49" y1="177.74" x2="227.31" y2="177.74" gradientTransform="translate(0 283.65) scale(1 -1)" gradientUnits="userSpaceOnUse">
      <stop offset=".02" stop-color="#5a5b5b"/>
      <stop offset=".51" stop-color="#e0e0de"/>
      <stop offset=".73" stop-color="#9fa0a0"/>
      <stop offset="1" stop-color="#5a5b5b"/>
    </linearGradient>
    <linearGradient id="linear-gradient-3" x1="15.49" y1="177.74" x2="227.31" y2="177.74" gradientTransform="translate(0 283.65) scale(1 -1)" xlink:href="#linear-gradient"/>
  </defs>
  <rect class="cls-5" y="223.28" width="242.81" height="60.26" rx="16.6" ry="16.6"/>
  <rect class="cls-2" x="4.25" y="226.27" width="234.32" height="53.85" rx="16.6" ry="16.6"/>
  <g>
    <g>
      <path class="cls-1" d="M121.4,0h0c58.49,0,105.91,47.42,105.91,105.91h0c0,58.49-47.42,105.91-105.91,105.91h0c-58.49,0-105.91-47.42-105.91-105.91h0C15.49,47.42,62.91,0,121.4,0Z"/>
      <path class="cls-4" d="M121.4,5.06c26.93,0,52.27,10.49,71.32,29.54s29.54,44.37,29.54,71.32-10.49,52.27-29.54,71.32c-19.05,19.05-44.37,29.54-71.32,29.54s-52.27-10.49-71.32-29.54c-19.05-19.05-29.54-44.37-29.54-71.32s10.49-52.27,29.54-71.32C69.14,15.55,94.47,5.06,121.4,5.06M121.4,0h0C62.92,0,15.49,47.42,15.49,105.91h0c0,58.49,47.42,105.91,105.91,105.91h0c58.49,0,105.91-47.42,105.91-105.91h0C227.31,47.42,179.89,0,121.4,0h0Z"/>
    </g>
    <circle class="cls-2" cx="121.4" cy="105.91" r="87.15"/>
    <g>
      <path class="cls-3" d="M68.68,52.68c-.12.12-.23.23-.34.35.23.49.41,1.02.71,1.46,2.06,3.1,3.99,6.31,6.24,9.27,12.4,16.32,24.86,32.59,37.38,48.83,2.76,3.58,6.59,5.01,11.05,4.03,4.51-.99,7.39-3.92,8.35-8.42.95-4.46-.58-8.21-4.12-11.03-6.68-5.31-13.35-10.61-20.14-15.77-11.81-8.94-23.7-17.77-35.58-26.61-1.09-.81-2.35-1.41-3.53-2.12h0Z"/>
      <path class="cls-3" d="M192.99,109.9c-.27,2.11-.5,4.24-.81,6.34-2.54,17.1-10.28,31.46-23.08,43.03-10.39,9.39-22.57,15.4-36.42,17.32-26.83,3.72-49.24-4.81-66.74-25.51-9.27-10.96-14.34-23.87-15.74-38.14-1.2-12.14.66-23.86,5.46-35.09,1.2-2.8,4.42-4.34,7.39-3.54,4.52,1.21,6.6,5.39,5.06,9.84-1.16,3.33-2.34,6.69-3.09,10.12-2.17,10.04-1.64,19.99,1.63,29.76,2.81,8.39,7.29,15.78,13.46,22.12,5.69,5.85,12.35,10.29,19.93,13.35,7.59,3.06,15.46,4.42,23.62,4.1,9.39-.36,18.16-2.93,26.29-7.59,9.28-5.31,16.54-12.65,21.76-21.96,3.96-7.07,6.39-14.64,7.09-22.75,1.17-13.63-2.02-26.15-9.65-37.5-4.61-6.86-10.51-12.43-17.53-16.79-1.42-.88-2.9-1.7-4.26-2.67-3.63-2.59-4.5-6.53-2.31-10.01,1.83-2.89,5.17-3.85,8.31-2.27,10.38,5.23,19.05,12.51,25.9,21.9,7.04,9.66,11.38,20.45,13.02,32.29.32,2.3.49,4.61.73,6.92v6.71h-.02Z"/>
      <path class="cls-3" d="M122.51,34.39c2.27.55,4.49,1.23,6.22,2.91,3.37,3.26,4.37,7.14,2.99,11.61-1.19,3.87-4.95,6.83-8.88,7.32-6.24.78-11.4-3.53-12.26-9.07-.99-6.42,3.48-11.77,9.18-12.55.17-.02.34-.14.51-.22h2.24v.02Z"/>
      <path class="cls-3" d="M68.68,52.68c1.18.7,2.44,1.3,3.53,2.12,11.88,8.85,23.78,17.67,35.58,26.61,6.79,5.14,13.47,10.46,20.14,15.77,3.54,2.81,5.06,6.57,4.12,11.03-.96,4.5-3.83,7.42-8.35,8.42-4.46.98-8.29-.45-11.05-4.03-12.51-16.23-24.97-32.52-37.38-48.83-2.25-2.96-4.18-6.16-6.24-9.27-.3-.45-.48-.97-.71-1.46.12-.12.23-.23.34-.35h0Z"/>
    </g>
  </g>
  <g>
    <path class="cls-3" d="M22.26,260.51v-10.41c0-5.99,2.07-9.66,8.66-9.66s8.3,3.42,8.3,8.34v2.5h-6.24v-2.89c0-1.67-.04-3.46-2.07-3.46s-2.21,1.82-2.21,3.56v13.58c0,1.96.32,3.53,2.21,3.53,2,0,2.07-1.78,2.07-3.53v-3.03h6.24v2.49c0,4.92-1.85,8.59-8.3,8.59s-8.66-3.78-8.66-9.62Z"/>
    <path class="cls-3" d="M42.72,240.84h7.95c5.81,0,9.59,1.57,9.59,7.63,0,3.56-.68,5.92-3.53,7.27l3.96,13.97h-6.59l-3.17-12.94h-1.82v12.94h-6.38v-28.87ZM50.88,253.1c2.67,0,3.46-1.5,3.46-4.06s-.75-3.92-3.17-3.92h-2.07v7.98h1.78Z"/>
    <path class="cls-3" d="M63.42,260.62v-10.73c0-5.95,2.17-9.45,8.66-9.45s8.73,3.49,8.73,9.45v10.73c0,5.95-2.21,9.52-8.73,9.52s-8.66-3.56-8.66-9.52ZM74.29,262.22v-13.9c0-1.71-.21-3.39-2.21-3.39-1.89,0-2.14,1.67-2.14,3.39v13.9c0,1.64.14,3.39,2.14,3.39s2.21-1.75,2.21-3.39Z"/>
    <path class="cls-3" d="M84.7,240.84h4.49l5.92,13.9v-13.9h5.28v28.87h-4.31l-5.92-14.97v14.97h-5.45v-28.87Z"/>
    <path class="cls-3" d="M104.3,260.62v-10.73c0-5.95,2.17-9.45,8.66-9.45s8.73,3.49,8.73,9.45v10.73c0,5.95-2.21,9.52-8.73,9.52s-8.66-3.56-8.66-9.52ZM115.17,262.22v-13.9c0-1.71-.21-3.39-2.21-3.39-1.89,0-2.14,1.67-2.14,3.39v13.9c0,1.64.14,3.39,2.14,3.39s2.21-1.75,2.21-3.39ZM113.32,231.39h5.92l-4.49,7.16h-3.67l2.25-7.16Z"/>
    <path class="cls-3" d="M125.97,240.84h6.84l3.17,16.79,3.42-16.79h6.59l.5,28.87h-4.53l-.53-19.21-3.35,19.21h-4.03l-3.56-19.35-.43,19.35h-4.6l.5-28.87Z"/>
    <path class="cls-3" d="M150.66,240.84h12.97v4.35h-6.59v7.17h5.03v4.42h-5.03v8.62h6.67v4.31h-13.05v-28.87Z"/>
    <path class="cls-3" d="M169.19,245.58h-4.35v-4.74h15.08v4.74h-4.31v24.13h-6.42v-24.13Z"/>
    <path class="cls-3" d="M182.45,240.84h7.95c5.81,0,9.59,1.57,9.59,7.63,0,3.56-.68,5.92-3.53,7.27l3.96,13.97h-6.59l-3.17-12.94h-1.82v12.94h-6.38v-28.87ZM190.61,253.1c2.67,0,3.46-1.5,3.46-4.06s-.75-3.92-3.17-3.92h-2.07v7.98h1.78Z"/>
    <path class="cls-3" d="M203.16,260.62v-10.73c0-5.95,2.17-9.45,8.66-9.45s8.73,3.49,8.73,9.45v10.73c0,5.95-2.21,9.52-8.73,9.52s-8.66-3.56-8.66-9.52ZM214.03,262.22v-13.9c0-1.71-.21-3.39-2.21-3.39-1.89,0-2.14,1.67-2.14,3.39v13.9c0,1.64.14,3.39,2.14,3.39s2.21-1.75,2.21-3.39Z"/>
  </g>
</svg>