<?xml version="1.0" encoding="UTF-8"?>
<svg id="Layer_1" xmlns="http://www.w3.org/2000/svg" version="1.1" xmlns:xlink="http://www.w3.org/1999/xlink" viewBox="0 0 211.82 322.14">
  <!-- Generator: Adobe Illustrator 29.5.1, SVG Export Plug-In . SVG Version: 2.1.0 Build 141)  -->
  <defs>
    <style>
      .st0 {
        fill: url(#linear-gradient2);
      }

      .st1 {
        fill: #cccccb;
      }

      .st2 {
        fill: url(#linear-gradient1);
      }

      .st3 {
        fill: #231f20;
      }

      .st4 {
        isolation: isolate;
      }

      .st5 {
        fill: #ccc;
      }

      .st6 {
        fill: url(#linear-gradient);
      }
    </style>
    <linearGradient id="linear-gradient" x1="0" y1="318.18" x2="211.82" y2="318.18" gradientTransform="translate(0 -212.27)" gradientUnits="userSpaceOnUse">
      <stop offset=".02" stop-color="#5a5b5b"/>
      <stop offset=".51" stop-color="#e0e0de"/>
      <stop offset=".73" stop-color="#9fa0a0"/>
      <stop offset="1" stop-color="#5a5b5b"/>
    </linearGradient>
    <linearGradient id="linear-gradient1" x1="0" y1="318.18" x2="211.82" y2="318.18" gradientTransform="translate(0 -212.27)" gradientUnits="userSpaceOnUse">
      <stop offset="0" stop-color="#e0e0de"/>
      <stop offset="0" stop-color="#dededd"/>
      <stop offset=".07" stop-color="#bfbebe"/>
      <stop offset=".14" stop-color="#a5a5a4"/>
      <stop offset=".21" stop-color="#929190"/>
      <stop offset=".3" stop-color="#838383"/>
      <stop offset=".41" stop-color="#7c7b7b"/>
      <stop offset=".59" stop-color="#797979"/>
      <stop offset=".7" stop-color="#7c7b7b"/>
      <stop offset=".78" stop-color="#838384"/>
      <stop offset=".84" stop-color="#939292"/>
      <stop offset=".9" stop-color="#a8a7a7"/>
      <stop offset=".96" stop-color="#c3c3c2"/>
      <stop offset="1" stop-color="#e0e0de"/>
    </linearGradient>
    <linearGradient id="linear-gradient2" x1="6.91" y1="46.8" x2="204.92" y2="46.8" gradientTransform="translate(0 321.89) scale(1 -1)" gradientUnits="userSpaceOnUse">
      <stop offset="0" stop-color="#e0e0de"/>
      <stop offset="0" stop-color="#dededd"/>
      <stop offset=".07" stop-color="#bfbebe"/>
      <stop offset=".14" stop-color="#a5a5a4"/>
      <stop offset=".21" stop-color="#929190"/>
      <stop offset=".3" stop-color="#838383"/>
      <stop offset=".41" stop-color="#7c7b7b"/>
      <stop offset=".59" stop-color="#797979"/>
      <stop offset=".7" stop-color="#7c7b7b"/>
      <stop offset=".78" stop-color="#838384"/>
      <stop offset=".84" stop-color="#939292"/>
      <stop offset=".9" stop-color="#a8a7a7"/>
      <stop offset=".96" stop-color="#c3c3c2"/>
      <stop offset="1" stop-color="#e0e0de"/>
    </linearGradient>
  </defs>
  <g>
    <g>
      <path class="st6" d="M105.91,0h0C164.4,0,211.82,47.42,211.82,105.91h0c0,58.49-47.42,105.91-105.91,105.91h0C47.42,211.82,0,164.4,0,105.91h0C0,47.42,47.42,0,105.91,0Z"/>
      <path class="st2" d="M105.91,5.06c26.93,0,52.27,10.49,71.32,29.54s29.54,44.37,29.54,71.32-10.49,52.27-29.54,71.32c-19.05,19.05-44.37,29.54-71.32,29.54s-52.27-10.49-71.32-29.54S5.05,132.87,5.05,105.92s10.49-52.27,29.54-71.32C53.64,15.55,78.98,5.06,105.91,5.06M105.91,0h0C47.42,0,0,47.42,0,105.91h0c0,58.49,47.42,105.91,105.91,105.91h0c58.49,0,105.91-47.42,105.91-105.91h0C211.82,47.42,164.4,0,105.91,0h0Z"/>
    </g>
    <circle class="st3" cx="105.91" cy="105.91" r="87.15"/>
    <path class="st1" d="M105.91,33.69c-39.82,0-72.22,32.4-72.22,72.22s32.4,72.22,72.22,72.22,72.22-32.4,72.22-72.22-32.4-72.22-72.22-72.22ZM58.77,66.86c10.01-12.07,24.35-19.88,39.86-21.73l.85,45.98s-40.71-24.25-40.71-24.25ZM96.85,104.1l-43.32,33.49c-5.79-9.54-8.83-20.45-8.83-31.67,0-10,2.45-19.86,7.12-28.65l45.04,26.83h-.01ZM167.13,105.91c0,7.91-1.48,15.59-4.42,22.85-10.25-5.69-30.46-17.07-40.37-22.65l42.76-15.82c1.34,5.09,2.02,10.34,2.02,15.62h0ZM112.08,96.58l-.96-51.66c21.3,1.8,40.01,14.5,49.57,33.67,0,0-48.61,17.99-48.61,17.99ZM156.87,139.82c-11.4,17.14-30.31,27.31-50.96,27.31-.75,0-1.51-.02-2.29-.05l7.72-52.82c5.43,3.06,14.06,7.93,22.64,12.75,8.16,4.59,14.74,8.27,19.55,10.95l.59.33c1.03.57,1.94,1.08,2.74,1.53h0ZM98.02,118.99l-6.78,46.37c-11.49-2.83-22.08-9.08-30.19-17.79,0,0,36.97-28.58,36.97-28.58Z"/>
    <g>
      <path class="st5" d="M117.79,115.62c.95-1.1,1.74-2.28,2.39-3.52v-.02c1.1-2.09,1.76-4.34,2.78-6.55l8.71-29.08s.86-3.74-.96-5.25-5.38.61-5.38.61l-27.57,14.39c-1.64.57-3.21,1.39-4.66,2.43l-.03.02c-1.13.82-2.18,1.77-3.14,2.87-6.65,7.69-5.81,19.32,1.88,25.97,7.69,6.65,19.32,5.81,25.97-1.88h.01Z"/>
      <path class="st3" d="M103.85,126.08c-5.22,0-10.46-1.8-14.71-5.48-9.39-8.12-10.42-22.37-2.3-31.76,1.13-1.3,2.42-2.49,3.83-3.51,1.7-1.22,3.52-2.19,5.45-2.9l27.23-14.21c1.25-.72,6.25-3.27,9.98-.18,3.59,2.98,2.58,8.3,2.34,9.33l-.07.25-8.8,29.35-.12.26c-.38.83-.72,1.7-1.07,2.62-.52,1.34-1.05,2.72-1.78,4.12-.82,1.57-1.81,3.02-2.93,4.32h0c-4.45,5.14-10.73,7.78-17.05,7.78h0ZM127.73,75.19c-.11.05-.22.11-.31.16l-.18.1-27.84,14.52-.28.1c-1.29.45-2.51,1.09-3.62,1.89-.92.67-1.74,1.42-2.46,2.25-5.16,5.97-4.51,15.02,1.46,20.19,5.97,5.16,15.02,4.51,20.18-1.46h0c.72-.83,1.34-1.75,1.86-2.74.53-1.01.96-2.12,1.41-3.3.35-.91.71-1.84,1.15-2.81l8.58-28.65c.01-.08.03-.17.04-.25h0Z"/>
    </g>
  </g>
  <g>
    <rect class="st0" x="6.91" y="228.31" width="198.01" height="93.56" rx="18.91" ry="18.91"/>
    <rect class="st3" x="10.37" y="231.91" width="191.08" height="85.85" rx="16.6" ry="16.6"/>
    <g class="st4">
      <g class="st4">
        <path class="st5" d="M33.14,245.54h7.95c5.81,0,9.59,1.57,9.59,7.63,0,3.56-.68,5.92-3.53,7.27l3.96,13.97h-6.59l-3.17-12.94h-1.82v12.94h-6.38v-28.87ZM41.3,257.8c2.67,0,3.46-1.5,3.46-4.06s-.75-3.92-3.17-3.92h-2.07v7.98h1.78Z"/>
      </g>
      <g class="st4">
        <path class="st5" d="M54.12,265.46v-19.92h6.31v20.89c0,1.82.21,3.81,2.25,3.81s2.21-2,2.21-3.81v-20.89h6.34v19.92c0,6.06-1.92,9.38-8.55,9.38s-8.55-3.31-8.55-9.38Z"/>
        <path class="st5" d="M75.29,245.54h6.38v24.56h6.63v4.31h-13.01v-28.87Z"/>
        <path class="st5" d="M91.08,245.54h12.97v4.35h-6.59v7.16h5.03v4.42h-5.03v8.63h6.67v4.31h-13.05v-28.87Z"/>
      </g>
      <g class="st4">
        <path class="st5" d="M109.62,250.28h-4.35v-4.74h15.08v4.74h-4.31v24.13h-6.42v-24.13Z"/>
      </g>
      <g class="st4">
        <path class="st5" d="M125.65,245.54h7.27l5.38,28.87h-5.88l-.96-6.1h-4.24l-1,6.1h-6.02l5.45-28.87ZM130.86,264.5l-1.53-11.26-1.53,11.26h3.07Z"/>
        <path class="st5" d="M150.35,245.54h7.31c7.52,0,9.7,2.71,9.7,9.12v10.48c0,6.49-2.17,9.27-9.62,9.27h-7.38v-28.87ZM157.73,269.99c2.89,0,3.07-1.25,3.07-3.85v-12.58c0-2.53-.29-3.56-3.1-3.56h-.96v20h1Z"/>
        <path class="st5" d="M171.23,245.54h12.97v4.35h-6.59v7.16h5.03v4.42h-5.03v8.63h6.67v4.31h-13.05v-28.87Z"/>
      </g>
      <g class="st4">
        <path class="st5" d="M52.47,280.54h12.97v4.35h-6.59v7.16h5.03v4.42h-5.03v8.63h6.67v4.31h-13.05v-28.87Z"/>
        <path class="st5" d="M67.76,300.68l5.45-.82c.07,3.74.93,5.13,2.53,5.13,1.32,0,1.6-1.11,1.6-2.1,0-2.39-1.21-3.81-3.17-5.49l-2.5-2.17c-2.21-1.85-3.89-4.03-3.89-7.52,0-4.88,3.1-7.56,8.09-7.56,6.17,0,7.06,4.81,7.16,8.2l-5.49.68c-.07-2.57-.25-4.21-1.89-4.21-1.18,0-1.71,1.25-1.71,2.25,0,2.14,1.1,3.28,2.78,4.74l2.39,2.1c2.5,2.14,4.49,4.67,4.49,8.66s-2.96,7.27-7.56,7.27c-5.45,0-8.09-2.74-8.31-9.16Z"/>
        <path class="st5" d="M89.32,285.28h-4.35v-4.74h15.08v4.74h-4.31v24.13h-6.42v-24.13Z"/>
        <path class="st5" d="M102.61,280.54h6.38v28.87h-6.38v-28.87Z"/>
      </g>
      <g class="st4">
        <path class="st5" d="M113.3,280.54h6.38v24.56h6.63v4.31h-13.01v-28.87Z"/>
      </g>
      <g class="st4">
        <path class="st5" d="M128.24,300.32v-10.73c0-5.95,2.17-9.45,8.66-9.45s8.73,3.49,8.73,9.45v10.73c0,5.95-2.21,9.52-8.73,9.52s-8.66-3.56-8.66-9.52ZM139.11,301.92v-13.9c0-1.71-.21-3.39-2.21-3.39-1.89,0-2.14,1.68-2.14,3.39v13.9c0,1.64.14,3.39,2.14,3.39s2.21-1.75,2.21-3.39Z"/>
        <path class="st5" d="M148.87,300.68l5.45-.82c.07,3.74.93,5.13,2.53,5.13,1.32,0,1.6-1.11,1.6-2.1,0-2.39-1.21-3.81-3.17-5.49l-2.5-2.17c-2.21-1.85-3.89-4.03-3.89-7.52,0-4.88,3.1-7.56,8.09-7.56,6.17,0,7.06,4.81,7.16,8.2l-5.49.68c-.07-2.57-.25-4.21-1.89-4.21-1.18,0-1.71,1.25-1.71,2.25,0,2.14,1.1,3.28,2.78,4.74l2.39,2.1c2.5,2.14,4.49,4.67,4.49,8.66s-2.96,7.27-7.56,7.27c-5.45,0-8.09-2.74-8.3-9.16Z"/>
      </g>
    </g>
  </g>
</svg>